# This file is brought to you by Roblox Corporation
# Generated by Roblox Studio

mtllib TestMapFromRblxStudio.mtl

g Part1

v 104 5.75 -24 
v 104 5.75 116 
v 104 1 -24 
v 104 1 116 
v 100 5.75 116 
v 104 5.75 116 
v 100 5.75 -24 
v 104 5.75 -24 
v 104 5.75 116 
v 100 5.75 116 
v 104 1 116 
v 100 1 116 
v 100 5.75 116 
v 100 5.75 -24 
v 100 1 116 
v 100 1 -24 
v 100 1 -24 
v 104 1 -24 
v 100 1 116 
v 104 1 116 
v 100 5.75 -24 
v 104 5.75 -24 
v 100 1 -24 
v 104 1 -24 

vn 1 0 0 
vn 1 0 0 
vn 1 0 0 
vn 1 0 0 
vn 0 1 0 
vn 0 1 0 
vn 0 1 0 
vn 0 1 0 
vn 0 0 1 
vn 0 0 1 
vn 0 0 1 
vn 0 0 1 
vn -1 0 0 
vn -1 0 0 
vn -1 0 0 
vn -1 0 0 
vn 0 -1 0 
vn 0 -1 0 
vn 0 -1 0 
vn 0 -1 0 
vn 0 0 -1 
vn 0 0 -1 
vn 0 0 -1 
vn 0 0 -1 

vt 23.25 -4.25 
vt 5.75 -4.25 
vt 23.25 -4.84375 
vt 5.75 -4.84375 
vt 6.25 -4.25 
vt 5.75 -4.25 
vt 6.25 -21.75 
vt 5.75 -21.75 
vt 6.25 -4.25 
vt 5.75 -4.25 
vt 6.25 -4.84375 
vt 5.75 -4.84375 
vt 23.25 -4.25 
vt 5.75 -4.25 
vt 23.25 -4.84375 
vt 5.75 -4.84375 
vt 6.25 -4.25 
vt 5.75 -4.25 
vt 6.25 -21.75 
vt 5.75 -21.75 
vt 6.25 -4.25 
vt 5.75 -4.25 
vt 6.25 -4.84375 
vt 5.75 -4.84375 

usemtl Part1Mtl

f 1/1/1 2/2/2 3/3/3 
f 3/3/3 2/2/2 4/4/4 
f 5/5/5 6/6/6 7/7/7 
f 7/7/7 6/6/6 8/8/8 
f 9/9/9 10/10/10 11/11/11 
f 11/11/11 10/10/10 12/12/12 
f 13/13/13 14/14/14 15/15/15 
f 15/15/15 14/14/14 16/16/16 
f 17/17/17 18/18/18 19/19/19 
f 19/19/19 18/18/18 20/20/20 
f 21/21/21 22/22/22 23/23/23 
f 23/23/23 22/22/22 24/24/24 

g Part2

v 100 5.75 44 
v 84 5.75 44 
v 100 1 44 
v 84 1 44 
v 84 5.75 40 
v 84 5.75 44 
v 100 5.75 40 
v 100 5.75 44 
v 84 5.75 44 
v 84 5.75 40 
v 84 1 44 
v 84 1 40 
v 84 5.75 40 
v 100 5.75 40 
v 84 1 40 
v 100 1 40 
v 100 1 40 
v 100 1 44 
v 84 1 40 
v 84 1 44 
v 100 5.75 40 
v 100 5.75 44 
v 100 1 40 
v 100 1 44 

vn 0 0 1 
vn 0 0 1 
vn 0 0 1 
vn 0 0 1 
vn 0 1 0 
vn 0 1 0 
vn 0 1 0 
vn 0 1 0 
vn -1 0 0 
vn -1 0 0 
vn -1 0 0 
vn -1 0 0 
vn 0 0 -1 
vn 0 0 -1 
vn 0 0 -1 
vn 0 0 -1 
vn 0 -1 0 
vn 0 -1 0 
vn 0 -1 0 
vn 0 -1 0 
vn 1 0 0 
vn 1 0 0 
vn 1 0 0 
vn 1 0 0 

vt 8.75 -2.75 
vt 6.75 -2.75 
vt 8.75 -3.34375 
vt 6.75 -3.34375 
vt 7.25 -2.75 
vt 6.75 -2.75 
vt 7.25 -4.75 
vt 6.75 -4.75 
vt 7.25 -2.75 
vt 6.75 -2.75 
vt 7.25 -3.34375 
vt 6.75 -3.34375 
vt 8.75 -2.75 
vt 6.75 -2.75 
vt 8.75 -3.34375 
vt 6.75 -3.34375 
vt 7.25 -2.75 
vt 6.75 -2.75 
vt 7.25 -4.75 
vt 6.75 -4.75 
vt 7.25 -2.75 
vt 6.75 -2.75 
vt 7.25 -3.34375 
vt 6.75 -3.34375 

usemtl Part1Mtl

f 25/25/25 26/26/26 27/27/27 
f 27/27/27 26/26/26 28/28/28 
f 29/29/29 30/30/30 31/31/31 
f 31/31/31 30/30/30 32/32/32 
f 33/33/33 34/34/34 35/35/35 
f 35/35/35 34/34/34 36/36/36 
f 37/37/37 38/38/38 39/39/39 
f 39/39/39 38/38/38 40/40/40 
f 41/41/41 42/42/42 43/43/43 
f 43/43/43 42/42/42 44/44/44 
f 45/45/45 46/46/46 47/47/47 
f 47/47/47 46/46/46 48/48/48 

g Part3

v 88 5.75 68 
v 88 5.75 112 
v 88 1 68 
v 88 1 112 
v 84 5.75 112 
v 88 5.75 112 
v 84 5.75 68 
v 88 5.75 68 
v 88 5.75 112 
v 84 5.75 112 
v 88 1 112 
v 84 1 112 
v 84 5.75 112 
v 84 5.75 68 
v 84 1 112 
v 84 1 68 
v 84 1 68 
v 88 1 68 
v 84 1 112 
v 88 1 112 
v 84 5.75 68 
v 88 5.75 68 
v 84 1 68 
v 88 1 68 

vn 1 0 0 
vn 1 0 0 
vn 1 0 0 
vn 1 0 0 
vn 0 1 0 
vn 0 1 0 
vn 0 1 0 
vn 0 1 0 
vn 0 0 1 
vn 0 0 1 
vn 0 0 1 
vn 0 0 1 
vn -1 0 0 
vn -1 0 0 
vn -1 0 0 
vn -1 0 0 
vn 0 -1 0 
vn 0 -1 0 
vn 0 -1 0 
vn 0 -1 0 
vn 0 0 -1 
vn 0 0 -1 
vn 0 0 -1 
vn 0 0 -1 

vt 8.75 -4.5 
vt 3.25 -4.5 
vt 8.75 -5.09375 
vt 3.25 -5.09375 
vt 3.75 -4.5 
vt 3.25 -4.5 
vt 3.75 -10 
vt 3.25 -10 
vt 3.75 -4.5 
vt 3.25 -4.5 
vt 3.75 -5.09375 
vt 3.25 -5.09375 
vt 8.75 -4.5 
vt 3.25 -4.5 
vt 8.75 -5.09375 
vt 3.25 -5.09375 
vt 3.75 -4.5 
vt 3.25 -4.5 
vt 3.75 -10 
vt 3.25 -10 
vt 3.75 -4.5 
vt 3.25 -4.5 
vt 3.75 -5.09375 
vt 3.25 -5.09375 

usemtl Part1Mtl

f 49/49/49 50/50/50 51/51/51 
f 51/51/51 50/50/50 52/52/52 
f 53/53/53 54/54/54 55/55/55 
f 55/55/55 54/54/54 56/56/56 
f 57/57/57 58/58/58 59/59/59 
f 59/59/59 58/58/58 60/60/60 
f 61/61/61 62/62/62 63/63/63 
f 63/63/63 62/62/62 64/64/64 
f 65/65/65 66/66/66 67/67/67 
f 67/67/67 66/66/66 68/68/68 
f 69/69/69 70/70/70 71/71/71 
f 71/71/71 70/70/70 72/72/72 

g Part4

v 84 5.75 88 
v 68 5.75 88 
v 84 1 88 
v 68 1 88 
v 68 5.75 68 
v 68 5.75 88 
v 84 5.75 68 
v 84 5.75 88 
v 68 5.75 88 
v 68 5.75 68 
v 68 1 88 
v 68 1 68 
v 68 5.75 68 
v 84 5.75 68 
v 68 1 68 
v 84 1 68 
v 84 1 68 
v 84 1 88 
v 68 1 68 
v 68 1 88 
v 84 5.75 68 
v 84 5.75 88 
v 84 1 68 
v 84 1 88 

vn 0 0 1 
vn 0 0 1 
vn 0 0 1 
vn 0 0 1 
vn 0 1 0 
vn 0 1 0 
vn 0 1 0 
vn 0 1 0 
vn -1 0 0 
vn -1 0 0 
vn -1 0 0 
vn -1 0 0 
vn 0 0 -1 
vn 0 0 -1 
vn 0 0 -1 
vn 0 0 -1 
vn 0 -1 0 
vn 0 -1 0 
vn 0 -1 0 
vn 0 -1 0 
vn 1 0 0 
vn 1 0 0 
vn 1 0 0 
vn 1 0 0 

vt 3.25 -6 
vt 1.25 -6 
vt 3.25 -6.59375 
vt 1.25 -6.59375 
vt 3.75 -6 
vt 1.25 -6 
vt 3.75 -8 
vt 1.25 -8 
vt 3.75 -6 
vt 1.25 -6 
vt 3.75 -6.59375 
vt 1.25 -6.59375 
vt 3.25 -6 
vt 1.25 -6 
vt 3.25 -6.59375 
vt 1.25 -6.59375 
vt 3.75 -6 
vt 1.25 -6 
vt 3.75 -8 
vt 1.25 -8 
vt 3.75 -6 
vt 1.25 -6 
vt 3.75 -6.59375 
vt 1.25 -6.59375 

usemtl Part1Mtl

f 73/73/73 74/74/74 75/75/75 
f 75/75/75 74/74/74 76/76/76 
f 77/77/77 78/78/78 79/79/79 
f 79/79/79 78/78/78 80/80/80 
f 81/81/81 82/82/82 83/83/83 
f 83/83/83 82/82/82 84/84/84 
f 85/85/85 86/86/86 87/87/87 
f 87/87/87 86/86/86 88/88/88 
f 89/89/89 90/90/90 91/91/91 
f 91/91/91 90/90/90 92/92/92 
f 93/93/93 94/94/94 95/95/95 
f 95/95/95 94/94/94 96/96/96 

g Part5

v 68 5.75 56 
v 68 5.75 40 
v 68 1 56 
v 68 1 40 
v 84 5.75 40 
v 68 5.75 40 
v 84 5.75 56 
v 68 5.75 56 
v 68 5.75 40 
v 84 5.75 40 
v 68 1 40 
v 84 1 40 
v 84 5.75 40 
v 84 5.75 56 
v 84 1 40 
v 84 1 56 
v 84 1 56 
v 68 1 56 
v 84 1 40 
v 68 1 40 
v 84 5.75 56 
v 68 5.75 56 
v 84 1 56 
v 68 1 56 

vn -1 0 0 
vn -1 0 0 
vn -1 0 0 
vn -1 0 0 
vn 0 1 0 
vn 0 1 0 
vn 0 1 0 
vn 0 1 0 
vn 0 0 -1 
vn 0 0 -1 
vn 0 0 -1 
vn 0 0 -1 
vn 1 0 0 
vn 1 0 0 
vn 1 0 0 
vn 1 0 0 
vn 0 -1 0 
vn 0 -1 0 
vn 0 -1 0 
vn 0 -1 0 
vn 0 0 1 
vn 0 0 1 
vn 0 0 1 
vn 0 0 1 

vt 8.25 -4.5 
vt 6.25 -4.5 
vt 8.25 -5.09375 
vt 6.25 -5.09375 
vt 8.25 -4.5 
vt 6.25 -4.5 
vt 8.25 -6.5 
vt 6.25 -6.5 
vt 8.25 -4.5 
vt 6.25 -4.5 
vt 8.25 -5.09375 
vt 6.25 -5.09375 
vt 8.25 -4.5 
vt 6.25 -4.5 
vt 8.25 -5.09375 
vt 6.25 -5.09375 
vt 8.25 -4.5 
vt 6.25 -4.5 
vt 8.25 -6.5 
vt 6.25 -6.5 
vt 8.25 -4.5 
vt 6.25 -4.5 
vt 8.25 -5.09375 
vt 6.25 -5.09375 

usemtl Part1Mtl

f 97/97/97 98/98/98 99/99/99 
f 99/99/99 98/98/98 100/100/100 
f 101/101/101 102/102/102 103/103/103 
f 103/103/103 102/102/102 104/104/104 
f 105/105/105 106/106/106 107/107/107 
f 107/107/107 106/106/106 108/108/108 
f 109/109/109 110/110/110 111/111/111 
f 111/111/111 110/110/110 112/112/112 
f 113/113/113 114/114/114 115/115/115 
f 115/115/115 114/114/114 116/116/116 
f 117/117/117 118/118/118 119/119/119 
f 119/119/119 118/118/118 120/120/120 

g Part6

v 104 1 -24 
v 104 1 116 
v 104 0 -24 
v 104 0 116 
v -3.99999 1 116 
v 104 1 116 
v -3.99999 1 -24 
v 104 1 -24 
v 104 1 116 
v -3.99999 1 116 
v 104 0 116 
v -3.99999 0 116 
v -3.99999 1 116 
v -3.99999 1 -24 
v -3.99999 0 116 
v -3.99999 0 -24 
v -3.99999 0 -24 
v 104 0 -24 
v -3.99999 0 116 
v 104 0 116 
v -3.99999 1 -24 
v 104 1 -24 
v -3.99999 0 -24 
v 104 0 -24 

vn 1 0 0 
vn 1 0 0 
vn 1 0 0 
vn 1 0 0 
vn 0 1 0 
vn 0 1 0 
vn 0 1 0 
vn 0 1 0 
vn 0 0 1 
vn 0 0 1 
vn 0 0 1 
vn 0 0 1 
vn -1 0 0 
vn -1 0 0 
vn -1 0 0 
vn -1 0 0 
vn 0 -1 0 
vn 0 -1 0 
vn 0 -1 0 
vn 0 -1 0 
vn 0 0 -1 
vn 0 0 -1 
vn 0 0 -1 
vn 0 0 -1 

vt 23.75 -1.5 
vt 6.25 -1.5 
vt 23.75 -1.625 
vt 6.25 -1.625 
vt 19.75 -1.5 
vt 6.25 -1.5 
vt 19.75 -19 
vt 6.25 -19 
vt 19.75 -1.5 
vt 6.25 -1.5 
vt 19.75 -1.625 
vt 6.25 -1.625 
vt 23.75 -1.5 
vt 6.25 -1.5 
vt 23.75 -1.625 
vt 6.25 -1.625 
vt 19.75 -1.5 
vt 6.25 -1.5 
vt 19.75 -19 
vt 6.25 -19 
vt 19.75 -1.5 
vt 6.25 -1.5 
vt 19.75 -1.625 
vt 6.25 -1.625 

usemtl Part6Mtl

f 121/121/121 122/122/122 123/123/123 
f 123/123/123 122/122/122 124/124/124 
f 125/125/125 126/126/126 127/127/127 
f 127/127/127 126/126/126 128/128/128 
f 129/129/129 130/130/130 131/131/131 
f 131/131/131 130/130/130 132/132/132 
f 133/133/133 134/134/134 135/135/135 
f 135/135/135 134/134/134 136/136/136 
f 137/137/137 138/138/138 139/139/139 
f 139/139/139 138/138/138 140/140/140 
f 141/141/141 142/142/142 143/143/143 
f 143/143/143 142/142/142 144/144/144 

g Part7

v 68 5.75 40 
v 68 5.75 24 
v 68 1 40 
v 68 1 24 
v 72 5.75 24 
v 68 5.75 24 
v 72 5.75 40 
v 68 5.75 40 
v 68 5.75 24 
v 72 5.75 24 
v 68 1 24 
v 72 1 24 
v 72 5.75 24 
v 72 5.75 40 
v 72 1 24 
v 72 1 40 
v 72 1 40 
v 68 1 40 
v 72 1 24 
v 68 1 24 
v 72 5.75 40 
v 68 5.75 40 
v 72 1 40 
v 68 1 40 

vn -1 0 0 
vn -1 0 0 
vn -1 0 0 
vn -1 0 0 
vn 0 1 0 
vn 0 1 0 
vn 0 1 0 
vn 0 1 0 
vn 0 0 -1 
vn 0 0 -1 
vn 0 0 -1 
vn 0 0 -1 
vn 1 0 0 
vn 1 0 0 
vn 1 0 0 
vn 1 0 0 
vn 0 -1 0 
vn 0 -1 0 
vn 0 -1 0 
vn 0 -1 0 
vn 0 0 1 
vn 0 0 1 
vn 0 0 1 
vn 0 0 1 

vt 6.75 -4.5 
vt 4.75 -4.5 
vt 6.75 -5.09375 
vt 4.75 -5.09375 
vt 5.25 -4.5 
vt 4.75 -4.5 
vt 5.25 -6.5 
vt 4.75 -6.5 
vt 5.25 -4.5 
vt 4.75 -4.5 
vt 5.25 -5.09375 
vt 4.75 -5.09375 
vt 6.75 -4.5 
vt 4.75 -4.5 
vt 6.75 -5.09375 
vt 4.75 -5.09375 
vt 5.25 -4.5 
vt 4.75 -4.5 
vt 5.25 -6.5 
vt 4.75 -6.5 
vt 5.25 -4.5 
vt 4.75 -4.5 
vt 5.25 -5.09375 
vt 4.75 -5.09375 

usemtl Part1Mtl

f 145/145/145 146/146/146 147/147/147 
f 147/147/147 146/146/146 148/148/148 
f 149/149/149 150/150/150 151/151/151 
f 151/151/151 150/150/150 152/152/152 
f 153/153/153 154/154/154 155/155/155 
f 155/155/155 154/154/154 156/156/156 
f 157/157/157 158/158/158 159/159/159 
f 159/159/159 158/158/158 160/160/160 
f 161/161/161 162/162/162 163/163/163 
f 163/163/163 162/162/162 164/164/164 
f 165/165/165 166/166/166 167/167/167 
f 167/167/167 166/166/166 168/168/168 

g Part8

v 68 5.75 -4 
v 68 5.75 -20 
v 68 1 -4 
v 68 1 -20 
v 72 5.75 -20 
v 68 5.75 -20 
v 72 5.75 -4 
v 68 5.75 -4 
v 68 5.75 -20 
v 72 5.75 -20 
v 68 1 -20 
v 72 1 -20 
v 72 5.75 -20 
v 72 5.75 -4 
v 72 1 -20 
v 72 1 -4 
v 72 1 -4 
v 68 1 -4 
v 72 1 -20 
v 68 1 -20 
v 72 5.75 -4 
v 68 5.75 -4 
v 72 1 -4 
v 68 1 -4 

vn -1 0 0 
vn -1 0 0 
vn -1 0 0 
vn -1 0 0 
vn 0 1 0 
vn 0 1 0 
vn 0 1 0 
vn 0 1 0 
vn 0 0 -1 
vn 0 0 -1 
vn 0 0 -1 
vn 0 0 -1 
vn 1 0 0 
vn 1 0 0 
vn 1 0 0 
vn 1 0 0 
vn 0 -1 0 
vn 0 -1 0 
vn 0 -1 0 
vn 0 -1 0 
vn 0 0 1 
vn 0 0 1 
vn 0 0 1 
vn 0 0 1 

vt 7.5 -5.5 
vt 5.5 -5.5 
vt 7.5 -6.09375 
vt 5.5 -6.09375 
vt 6 -5.5 
vt 5.5 -5.5 
vt 6 -7.5 
vt 5.5 -7.5 
vt 6 -5.5 
vt 5.5 -5.5 
vt 6 -6.09375 
vt 5.5 -6.09375 
vt 7.5 -5.5 
vt 5.5 -5.5 
vt 7.5 -6.09375 
vt 5.5 -6.09375 
vt 6 -5.5 
vt 5.5 -5.5 
vt 6 -7.5 
vt 5.5 -7.5 
vt 6 -5.5 
vt 5.5 -5.5 
vt 6 -6.09375 
vt 5.5 -6.09375 

usemtl Part1Mtl

f 169/169/169 170/170/170 171/171/171 
f 171/171/171 170/170/170 172/172/172 
f 173/173/173 174/174/174 175/175/175 
f 175/175/175 174/174/174 176/176/176 
f 177/177/177 178/178/178 179/179/179 
f 179/179/179 178/178/178 180/180/180 
f 181/181/181 182/182/182 183/183/183 
f 183/183/183 182/182/182 184/184/184 
f 185/185/185 186/186/186 187/187/187 
f 187/187/187 186/186/186 188/188/188 
f 189/189/189 190/190/190 191/191/191 
f 191/191/191 190/190/190 192/192/192 

g Part9

v 68 5.75 44 
v 52 5.75 44 
v 68 1 44 
v 52 1 44 
v 52 5.75 40 
v 52 5.75 44 
v 68 5.75 40 
v 68 5.75 44 
v 52 5.75 44 
v 52 5.75 40 
v 52 1 44 
v 52 1 40 
v 52 5.75 40 
v 68 5.75 40 
v 52 1 40 
v 68 1 40 
v 68 1 40 
v 68 1 44 
v 52 1 40 
v 52 1 44 
v 68 5.75 40 
v 68 5.75 44 
v 68 1 40 
v 68 1 44 

vn 0 0 1 
vn 0 0 1 
vn 0 0 1 
vn 0 0 1 
vn 0 1 0 
vn 0 1 0 
vn 0 1 0 
vn 0 1 0 
vn -1 0 0 
vn -1 0 0 
vn -1 0 0 
vn -1 0 0 
vn 0 0 -1 
vn 0 0 -1 
vn 0 0 -1 
vn 0 0 -1 
vn 0 -1 0 
vn 0 -1 0 
vn 0 -1 0 
vn 0 -1 0 
vn 1 0 0 
vn 1 0 0 
vn 1 0 0 
vn 1 0 0 

vt 2.25 0 
vt 0.25 0 
vt 2.25 -0.59375 
vt 0.25 -0.59375 
vt 0.75 0 
vt 0.25 0 
vt 0.75 -2 
vt 0.25 -2 
vt 0.75 0 
vt 0.25 0 
vt 0.75 -0.59375 
vt 0.25 -0.59375 
vt 2.25 0 
vt 0.25 0 
vt 2.25 -0.59375 
vt 0.25 -0.59375 
vt 0.75 0 
vt 0.25 0 
vt 0.75 -2 
vt 0.25 -2 
vt 0.75 0 
vt 0.25 0 
vt 0.75 -0.59375 
vt 0.25 -0.59375 

usemtl Part1Mtl

f 193/193/193 194/194/194 195/195/195 
f 195/195/195 194/194/194 196/196/196 
f 197/197/197 198/198/198 199/199/199 
f 199/199/199 198/198/198 200/200/200 
f 201/201/201 202/202/202 203/203/203 
f 203/203/203 202/202/202 204/204/204 
f 205/205/205 206/206/206 207/207/207 
f 207/207/207 206/206/206 208/208/208 
f 209/209/209 210/210/210 211/211/211 
f 211/211/211 210/210/210 212/212/212 
f 213/213/213 214/214/214 215/215/215 
f 215/215/215 214/214/214 216/216/216 

g Part10

v 1.14441e-05 5.75 -24 
v 100 5.75 -24 
v 1.14441e-05 1 -24 
v 100 1 -24 
v 100 5.75 -20 
v 100 5.75 -24 
v 1.14441e-05 5.75 -20 
v 1.14441e-05 5.75 -24 
v 100 5.75 -24 
v 100 5.75 -20 
v 100 1 -24 
v 100 1 -20 
v 100 5.75 -20 
v 1.14441e-05 5.75 -20 
v 100 1 -20 
v 1.14441e-05 1 -20 
v 1.14441e-05 1 -20 
v 1.14441e-05 1 -24 
v 100 1 -20 
v 100 1 -24 
v 1.14441e-05 5.75 -20 
v 1.14441e-05 5.75 -24 
v 1.14441e-05 1 -20 
v 1.14441e-05 1 -24 

vn 0 0 -1 
vn 0 0 -1 
vn 0 0 -1 
vn 0 0 -1 
vn 0 1 0 
vn 0 1 0 
vn 0 1 0 
vn 0 1 0 
vn 1 0 0 
vn 1 0 0 
vn 1 0 0 
vn 1 0 0 
vn 0 0 1 
vn 0 0 1 
vn 0 0 1 
vn 0 0 1 
vn 0 -1 0 
vn 0 -1 0 
vn 0 -1 0 
vn 0 -1 0 
vn -1 0 0 
vn -1 0 0 
vn -1 0 0 
vn -1 0 0 

vt 18 -3.5 
vt 5.5 -3.5 
vt 18 -4.09375 
vt 5.5 -4.09375 
vt 6 -3.5 
vt 5.5 -3.5 
vt 6 -16 
vt 5.5 -16 
vt 6 -3.5 
vt 5.5 -3.5 
vt 6 -4.09375 
vt 5.5 -4.09375 
vt 18 -3.5 
vt 5.5 -3.5 
vt 18 -4.09375 
vt 5.5 -4.09375 
vt 6 -3.5 
vt 5.5 -3.5 
vt 6 -16 
vt 5.5 -16 
vt 6 -3.5 
vt 5.5 -3.5 
vt 6 -4.09375 
vt 5.5 -4.09375 

usemtl Part1Mtl

f 217/217/217 218/218/218 219/219/219 
f 219/219/219 218/218/218 220/220/220 
f 221/221/221 222/222/222 223/223/223 
f 223/223/223 222/222/222 224/224/224 
f 225/225/225 226/226/226 227/227/227 
f 227/227/227 226/226/226 228/228/228 
f 229/229/229 230/230/230 231/231/231 
f 231/231/231 230/230/230 232/232/232 
f 233/233/233 234/234/234 235/235/235 
f 235/235/235 234/234/234 236/236/236 
f 237/237/237 238/238/238 239/239/239 
f 239/239/239 238/238/238 240/240/240 

g Part11

v 100 5.75 116 
v 1.52588e-05 5.75 116 
v 100 1 116 
v 1.52588e-05 1 116 
v 1.52588e-05 5.75 112 
v 1.52588e-05 5.75 116 
v 100 5.75 112 
v 100 5.75 116 
v 1.52588e-05 5.75 116 
v 1.52588e-05 5.75 112 
v 1.52588e-05 1 116 
v 1.52588e-05 1 112 
v 1.52588e-05 5.75 112 
v 100 5.75 112 
v 1.52588e-05 1 112 
v 100 1 112 
v 100 1 112 
v 100 1 116 
v 1.52588e-05 1 112 
v 1.52588e-05 1 116 
v 100 5.75 112 
v 100 5.75 116 
v 100 1 112 
v 100 1 116 

vn 0 0 1 
vn 0 0 1 
vn 0 0 1 
vn 0 0 1 
vn 0 1 0 
vn 0 1 0 
vn 0 1 0 
vn 0 1 0 
vn -1 0 0 
vn -1 0 0 
vn -1 0 0 
vn -1 0 0 
vn 0 0 -1 
vn 0 0 -1 
vn 0 0 -1 
vn 0 0 -1 
vn 0 -1 0 
vn 0 -1 0 
vn 0 -1 0 
vn 0 -1 0 
vn 1 0 0 
vn 1 0 0 
vn 1 0 0 
vn 1 0 0 

vt 15 -3.75 
vt 2.5 -3.75 
vt 15 -4.34375 
vt 2.5 -4.34375 
vt 3 -3.75 
vt 2.5 -3.75 
vt 3 -16.25 
vt 2.5 -16.25 
vt 3 -3.75 
vt 2.5 -3.75 
vt 3 -4.34375 
vt 2.5 -4.34375 
vt 15 -3.75 
vt 2.5 -3.75 
vt 15 -4.34375 
vt 2.5 -4.34375 
vt 3 -3.75 
vt 2.5 -3.75 
vt 3 -16.25 
vt 2.5 -16.25 
vt 3 -3.75 
vt 2.5 -3.75 
vt 3 -4.34375 
vt 2.5 -4.34375 

usemtl Part1Mtl

f 241/241/241 242/242/242 243/243/243 
f 243/243/243 242/242/242 244/244/244 
f 245/245/245 246/246/246 247/247/247 
f 247/247/247 246/246/246 248/248/248 
f 249/249/249 250/250/250 251/251/251 
f 251/251/251 250/250/250 252/252/252 
f 253/253/253 254/254/254 255/255/255 
f 255/255/255 254/254/254 256/256/256 
f 257/257/257 258/258/258 259/259/259 
f 259/259/259 258/258/258 260/260/260 
f 261/261/261 262/262/262 263/263/263 
f 263/263/263 262/262/262 264/264/264 

g Part12

v 7.62939e-06 5.75 -24 
v 7.62939e-06 5.75 116 
v 7.62939e-06 1 -24 
v 7.62939e-06 1 116 
v -3.99999 5.75 116 
v 7.62939e-06 5.75 116 
v -3.99999 5.75 -24 
v 7.62939e-06 5.75 -24 
v 7.62939e-06 5.75 116 
v -3.99999 5.75 116 
v 7.62939e-06 1 116 
v -3.99999 1 116 
v -3.99999 5.75 116 
v -3.99999 5.75 -24 
v -3.99999 1 116 
v -3.99999 1 -24 
v -3.99999 1 -24 
v 7.62939e-06 1 -24 
v -3.99999 1 116 
v 7.62939e-06 1 116 
v -3.99999 5.75 -24 
v 7.62939e-06 5.75 -24 
v -3.99999 1 -24 
v 7.62939e-06 1 -24 

vn 1 0 0 
vn 1 0 0 
vn 1 0 0 
vn 1 0 0 
vn 0 1 0 
vn 0 1 0 
vn 0 1 0 
vn 0 1 0 
vn 0 0 1 
vn 0 0 1 
vn 0 0 1 
vn 0 0 1 
vn -1 0 0 
vn -1 0 0 
vn -1 0 0 
vn -1 0 0 
vn 0 -1 0 
vn 0 -1 0 
vn 0 -1 0 
vn 0 -1 0 
vn 0 0 -1 
vn 0 0 -1 
vn 0 0 -1 
vn 0 0 -1 

vt 18.25 -4.25 
vt 0.75 -4.25 
vt 18.25 -4.84375 
vt 0.75 -4.84375 
vt 1.25 -4.25 
vt 0.75 -4.25 
vt 1.25 -21.75 
vt 0.75 -21.75 
vt 1.25 -4.25 
vt 0.75 -4.25 
vt 1.25 -4.84375 
vt 0.75 -4.84375 
vt 18.25 -4.25 
vt 0.75 -4.25 
vt 18.25 -4.84375 
vt 0.75 -4.84375 
vt 1.25 -4.25 
vt 0.75 -4.25 
vt 1.25 -21.75 
vt 0.75 -21.75 
vt 1.25 -4.25 
vt 0.75 -4.25 
vt 1.25 -4.84375 
vt 0.75 -4.84375 

usemtl Part1Mtl

f 265/265/265 266/266/266 267/267/267 
f 267/267/267 266/266/266 268/268/268 
f 269/269/269 270/270/270 271/271/271 
f 271/271/271 270/270/270 272/272/272 
f 273/273/273 274/274/274 275/275/275 
f 275/275/275 274/274/274 276/276/276 
f 277/277/277 278/278/278 279/279/279 
f 279/279/279 278/278/278 280/280/280 
f 281/281/281 282/282/282 283/283/283 
f 283/283/283 282/282/282 284/284/284 
f 285/285/285 286/286/286 287/287/287 
f 287/287/287 286/286/286 288/288/288 

